<svg width="1200" height="760" viewBox="0 0 1200 760" fill="none" xmlns="http://www.w3.org/2000/svg" role="img" aria-labelledby="title desc">
  <title id="title">Capture d'écran de l'accueil de l'application Baiboly Malagasy</title>
  <desc id="desc">Interface avec l'en-tête Ny Baiboly, la recherche, une barre latérale d'historique et une grille de livres bibliques.</desc>
  <defs>
    <linearGradient id="bg" x1="0" y1="0" x2="1200" y2="760" gradientUnits="userSpaceOnUse"><stop stop-color="#eef7ff"/><stop offset="1" stop-color="#fff6e9"/></linearGradient>
    <linearGradient id="card" x1="0" y1="0" x2="1" y2="1"><stop stop-color="#ffffff"/><stop offset="1" stop-color="#f8fbff"/></linearGradient>
    <filter id="shadow" x="-20%" y="-20%" width="140%" height="140%"><feDropShadow dx="0" dy="14" stdDeviation="18" flood-color="#21405f" flood-opacity="0.16"/></filter>
  </defs>
  <rect width="1200" height="760" rx="34" fill="url(#bg)"/>
  <rect x="54" y="42" width="1092" height="676" rx="30" fill="#f7fbff" filter="url(#shadow)"/>
  <rect x="54" y="42" width="1092" height="88" rx="30" fill="#ffffff"/>
  <text x="98" y="96" font-family="Inter, Arial, sans-serif" font-size="34" font-weight="800" fill="#17496f">✝ Ny Baiboly</text>
  <text x="270" y="97" font-family="Inter, Arial, sans-serif" font-size="14" font-weight="700" fill="#7a8da0">Malagasy Bible</text>
  <rect x="410" y="64" width="392" height="44" rx="22" fill="#f1f6fb" stroke="#d7e5f3"/>
  <text x="438" y="92" font-family="Inter, Arial, sans-serif" font-size="16" fill="#7a8da0">Hikaroka (3+ litera)...</text>
  <rect x="1014" y="62" width="84" height="46" rx="23" fill="#17496f"/>
  <text x="1039" y="91" font-family="Inter, Arial, sans-serif" font-size="16" font-weight="700" fill="#ffffff">Boky</text>

  <rect x="86" y="166" width="256" height="500" rx="24" fill="#ffffff" filter="url(#shadow)"/>
  <text x="116" y="215" font-family="Inter, Arial, sans-serif" font-size="24" font-weight="800" fill="#17496f">Tantara</text>
  <rect x="116" y="244" width="196" height="56" rx="16" fill="#edf6ff"/>
  <text x="136" y="278" font-family="Inter, Arial, sans-serif" font-size="16" font-weight="700" fill="#24628f">Genesisy 1</text>
  <rect x="116" y="316" width="196" height="56" rx="16" fill="#fff8ec"/>
  <text x="136" y="350" font-family="Inter, Arial, sans-serif" font-size="16" font-weight="700" fill="#8a5a18">Matio 5</text>
  <rect x="116" y="388" width="196" height="56" rx="16" fill="#f5f7fb"/>
  <text x="136" y="422" font-family="Inter, Arial, sans-serif" font-size="16" font-weight="700" fill="#66768a">Salamo 23</text>
  <circle cx="214" cy="558" r="64" fill="#f0f7ff"/>
  <text x="178" y="568" font-family="Inter, Arial, sans-serif" font-size="46" fill="#17496f">📖</text>

  <text x="388" y="190" font-family="Inter, Arial, sans-serif" font-size="42" font-weight="900" fill="#153f61">Safidio ny boky</text>
  <text x="390" y="225" font-family="Inter, Arial, sans-serif" font-size="18" fill="#6f8296">Parcourez l'Ancien et le Nouveau Testament en malgache.</text>
  <g font-family="Inter, Arial, sans-serif">
    <rect x="388" y="270" width="160" height="96" rx="22" fill="url(#card)" stroke="#d8e8f6"/>
    <text x="418" y="324" font-size="20" font-weight="800" fill="#17496f">Genesisy</text>
    <text x="418" y="348" font-size="13" fill="#7d8fa2">50 toko</text>
    <rect x="572" y="270" width="160" height="96" rx="22" fill="url(#card)" stroke="#d8e8f6"/>
    <text x="604" y="324" font-size="20" font-weight="800" fill="#17496f">Eksodosy</text>
    <text x="604" y="348" font-size="13" fill="#7d8fa2">40 toko</text>
    <rect x="756" y="270" width="160" height="96" rx="22" fill="url(#card)" stroke="#d8e8f6"/>
    <text x="795" y="324" font-size="20" font-weight="800" fill="#17496f">Salamo</text>
    <text x="795" y="348" font-size="13" fill="#7d8fa2">150 toko</text>
    <rect x="940" y="270" width="160" height="96" rx="22" fill="url(#card)" stroke="#d8e8f6"/>
    <text x="987" y="324" font-size="20" font-weight="800" fill="#17496f">Matio</text>
    <text x="987" y="348" font-size="13" fill="#7d8fa2">28 toko</text>
    <rect x="388" y="394" width="160" height="96" rx="22" fill="url(#card)" stroke="#d8e8f6"/>
    <text x="430" y="448" font-size="20" font-weight="800" fill="#17496f">Marka</text>
    <text x="430" y="472" font-size="13" fill="#7d8fa2">16 toko</text>
    <rect x="572" y="394" width="160" height="96" rx="22" fill="url(#card)" stroke="#d8e8f6"/>
    <text x="620" y="448" font-size="20" font-weight="800" fill="#17496f">Lioka</text>
    <text x="620" y="472" font-size="13" fill="#7d8fa2">24 toko</text>
    <rect x="756" y="394" width="160" height="96" rx="22" fill="url(#card)" stroke="#d8e8f6"/>
    <text x="788" y="448" font-size="20" font-weight="800" fill="#17496f">Jaona</text>
    <text x="788" y="472" font-size="13" fill="#7d8fa2">21 toko</text>
    <rect x="940" y="394" width="160" height="96" rx="22" fill="url(#card)" stroke="#d8e8f6"/>
    <text x="982" y="448" font-size="20" font-weight="800" fill="#17496f">Romana</text>
    <text x="982" y="472" font-size="13" fill="#7d8fa2">16 toko</text>
  </g>
</svg>
